<svg xmlns="http://www.w3.org/2000/svg" xmlns:xlink="http://www.w3.org/1999/xlink" width="300" zoomAndPan="magnify" viewBox="0 0 224.87999 74.999997" height="100" preserveAspectRatio="xMidYMid meet" version="1.0"><defs><g/><clipPath id="9ed1e79ba2"><path d="M 0.0117188 7.515625 L 224.761719 7.515625 L 224.761719 68.234375 L 0.0117188 68.234375 Z M 0.0117188 7.515625 " clip-rule="nonzero"/></clipPath><clipPath id="81440f8123"><path d="M 101 23 L 127 23 L 127 53 L 101 53 Z M 101 23 " clip-rule="nonzero"/></clipPath><clipPath id="28040f059c"><path d="M 100.894531 23.675781 L 126.375 23.125 L 127.011719 52.351562 L 101.53125 52.902344 Z M 100.894531 23.675781 " clip-rule="nonzero"/></clipPath><clipPath id="96c4eff7d2"><path d="M 100.894531 23.675781 L 126.375 23.125 L 127.011719 52.351562 L 101.53125 52.902344 Z M 100.894531 23.675781 " clip-rule="nonzero"/></clipPath></defs><g clip-path="url(#9ed1e79ba2)"><path stroke-linecap="butt" transform="matrix(0.7496, 0, 0, 0.7496, 0.00977492, 7.515999)" fill="none" stroke-linejoin="miter" d="M 0.00259316 -0.000498295 L 299.975104 -0.000498295 L 299.975104 81.26681 L 0.00259316 81.26681 Z M 0.00259316 -0.000498295 " stroke="#174b21" stroke-width="22" stroke-opacity="1" stroke-miterlimit="4"/></g><g clip-path="url(#81440f8123)"><g clip-path="url(#28040f059c)"><g clip-path="url(#96c4eff7d2)"><path fill="#174b21" d="M 105.589844 34.984375 Z M 105.332031 28.820312 Z M 126.363281 39.726562 C 126.128906 39.964844 125.894531 40.207031 125.660156 40.445312 C 125.582031 40.527344 125.527344 40.628906 125.421875 40.679688 C 125.28125 40.855469 125.097656 40.988281 124.929688 41.128906 C 123.773438 42.09375 122.445312 42.726562 121.019531 43.167969 C 120.496094 43.332031 119.976562 43.511719 119.4375 43.613281 C 119.246094 43.652344 119.054688 43.679688 118.859375 43.640625 C 118.71875 43.613281 118.601562 43.550781 118.550781 43.40625 C 118.503906 43.261719 118.558594 43.136719 118.652344 43.03125 C 118.789062 42.875 118.976562 42.789062 119.164062 42.714844 C 119.648438 42.523438 120.15625 42.410156 120.652344 42.265625 C 122.070312 41.859375 123.390625 41.257812 124.589844 40.394531 C 125.003906 40.09375 125.386719 39.753906 125.722656 39.363281 C 126 39.039062 126.269531 38.707031 126.382812 38.28125 C 126.441406 38.0625 126.441406 37.839844 126.417969 37.613281 C 126.300781 36.375 125.890625 35.210938 125.582031 34.015625 C 125.492188 33.65625 125.410156 33.292969 125.242188 32.957031 C 125.234375 32.9375 125.222656 32.921875 125.207031 32.898438 C 124.964844 33.109375 124.804688 33.648438 124.625 33.925781 C 124.390625 34.296875 124.136719 34.652344 123.863281 34.992188 C 123.339844 35.65625 122.75 36.265625 122.109375 36.816406 C 121.511719 37.332031 120.867188 37.792969 120.1875 38.191406 C 119.691406 38.484375 118.8125 39.136719 118.214844 38.996094 C 118.144531 38.980469 118.074219 38.957031 118.046875 38.890625 C 118.015625 38.816406 118.078125 38.769531 118.121094 38.71875 C 118.523438 38.253906 119.324219 37.980469 119.832031 37.617188 C 120.40625 37.203125 120.949219 36.75 121.457031 36.257812 C 122.472656 35.273438 123.347656 34.140625 124.03125 32.90625 C 124.105469 32.773438 124.175781 32.640625 124.203125 32.496094 C 124.285156 32.050781 123.945312 31.617188 123.75 31.242188 C 123.421875 30.644531 123.039062 30.085938 122.613281 29.554688 C 122.410156 29.300781 122.191406 29.0625 121.980469 28.816406 C 121.96875 28.800781 121.960938 28.78125 121.949219 28.765625 C 121.949219 28.765625 121.945312 28.761719 121.945312 28.761719 C 121.847656 28.71875 121.800781 28.613281 121.726562 28.542969 C 121.683594 28.5 121.644531 28.460938 121.601562 28.417969 C 121.570312 28.40625 121.542969 28.351562 121.527344 28.441406 C 121.496094 28.59375 121.492188 28.746094 121.472656 28.898438 C 121.421875 29.292969 121.308594 29.667969 121.171875 30.035156 C 120.964844 30.578125 120.691406 31.089844 120.390625 31.589844 C 120.105469 32.066406 119.792969 32.523438 119.460938 32.964844 C 119.09375 33.460938 118.699219 33.941406 118.3125 34.425781 C 118.082031 34.71875 117.828125 35 117.558594 35.257812 C 117.273438 35.53125 116.96875 35.773438 116.582031 35.890625 C 116.574219 35.894531 116.566406 35.898438 116.558594 35.902344 C 116.296875 35.949219 116.144531 35.925781 116.230469 35.59375 C 116.316406 35.265625 116.5 34.984375 116.6875 34.710938 C 116.980469 34.289062 117.308594 33.898438 117.636719 33.503906 C 118.316406 32.679688 119.027344 31.878906 119.589844 30.960938 C 119.960938 30.355469 120.265625 29.722656 120.417969 29.023438 C 120.421875 28.996094 120.425781 28.964844 120.429688 28.9375 C 120.4375 28.894531 120.445312 28.855469 120.453125 28.8125 C 120.460938 28.761719 120.464844 28.710938 120.472656 28.664062 C 120.472656 28.574219 120.472656 28.480469 120.46875 28.390625 C 120.410156 27.949219 120.203125 27.582031 119.914062 27.25 C 119.605469 26.894531 119.257812 26.574219 118.90625 26.265625 C 118.375 25.800781 117.832031 25.34375 117.257812 24.921875 C 117.027344 24.75 116.804688 24.570312 116.558594 24.421875 C 116.535156 24.40625 116.511719 24.390625 116.484375 24.378906 C 116.433594 24.359375 116.375 24.347656 116.332031 24.382812 C 116.292969 24.410156 116.335938 24.460938 116.347656 24.496094 C 116.746094 25.828125 116.777344 27.265625 116.460938 28.621094 C 116.3125 29.257812 116.085938 29.875 115.789062 30.460938 C 115.636719 30.761719 115.464844 31.0625 115.265625 31.339844 C 115.246094 31.371094 114.875 31.832031 114.886719 31.699219 C 114.972656 30.4375 115.476562 29.269531 115.8125 28.054688 C 116.058594 27.15625 116.152344 26.066406 115.621094 25.246094 C 115.058594 24.371094 114.015625 24.214844 113.066406 24.042969 C 112.8125 24 112.5625 23.949219 112.308594 23.890625 C 111.828125 23.785156 111.351562 23.660156 110.878906 23.515625 C 110.871094 23.511719 110.863281 23.503906 110.859375 23.496094 C 110.855469 23.496094 110.851562 23.496094 110.851562 23.492188 C 110.753906 23.460938 110.710938 23.480469 110.671875 23.570312 C 110.589844 23.75 110.515625 23.933594 110.414062 24.101562 C 110.296875 24.371094 110.140625 24.621094 109.980469 24.867188 C 109.675781 25.335938 109.324219 25.773438 109.011719 26.238281 C 108.847656 26.484375 108.699219 26.738281 108.542969 26.992188 C 108.4375 27.21875 108.332031 27.449219 108.25 27.6875 C 108.195312 27.917969 108.15625 28.148438 108.144531 28.386719 C 108.144531 28.460938 108.148438 28.535156 108.148438 28.609375 C 108.371094 30.882812 110.59375 32.386719 110.949219 34.632812 C 110.625 34.613281 110.34375 34.402344 110.105469 34.175781 C 109.578125 33.679688 109.152344 33.085938 108.75 32.484375 C 108.28125 31.78125 107.839844 31.058594 107.429688 30.324219 C 107.054688 29.65625 106.59375 28.960938 106.472656 28.195312 C 106.46875 28.171875 106.46875 28.148438 106.464844 28.125 C 106.460938 28.066406 106.457031 28.007812 106.453125 27.949219 C 105.75 28.1875 105.214844 28.914062 104.859375 29.527344 C 104.597656 29.980469 104.269531 30.617188 104.425781 31.152344 C 104.589844 31.722656 104.96875 32.234375 105.324219 32.703125 C 106.46875 34.214844 108.070312 35.257812 109.308594 36.675781 C 109.511719 36.910156 109.710938 37.164062 109.785156 37.464844 C 109.796875 37.519531 109.804688 37.578125 109.789062 37.632812 C 109.742188 37.753906 109.582031 37.78125 109.449219 37.773438 C 109.109375 37.742188 108.785156 37.601562 108.484375 37.441406 C 106.332031 36.277344 104.53125 34.050781 103.449219 31.894531 C 103.335938 31.664062 103.320312 31.671875 103.238281 31.90625 C 103.191406 32.046875 103.140625 32.1875 103.09375 32.328125 C 103.003906 32.601562 102.921875 32.875 102.839844 33.148438 C 102.675781 33.707031 102.53125 34.269531 102.410156 34.84375 C 102.339844 35.179688 102.277344 35.523438 102.277344 35.867188 C 102.273438 38.457031 105.578125 39.628906 107.613281 40.191406 C 108.429688 40.414062 109.277344 40.605469 109.964844 41.09375 C 110.179688 41.246094 110.429688 41.523438 110.136719 41.699219 C 109.960938 41.808594 109.636719 41.785156 109.4375 41.761719 C 106.835938 41.464844 104.285156 40.078125 102.179688 38.574219 C 102.164062 38.5625 102.144531 38.558594 102.125 38.554688 C 102.125 38.5625 102.121094 38.570312 102.117188 38.578125 C 101.304688 42.113281 102.339844 45.941406 104.75 48.671875 C 105.742188 49.792969 106.992188 50.742188 108.449219 51.078125 C 109.535156 51.324219 110.746094 51.183594 111.703125 50.589844 C 112.753906 49.9375 113.269531 48.589844 113.617188 47.453125 C 113.785156 46.890625 113.921875 46.316406 113.980469 45.726562 C 113.988281 45.648438 114 45.542969 114.136719 45.550781 C 114.265625 45.554688 114.328125 45.589844 114.363281 45.691406 C 114.457031 46.582031 114.578125 47.464844 114.757812 48.339844 C 115.113281 50.089844 115.96875 51.746094 117.855469 52.167969 C 119.140625 52.449219 120.507812 52.105469 121.625 51.414062 C 122.746094 50.726562 123.636719 49.714844 124.375 48.628906 C 126.140625 46.039062 127.136719 42.761719 126.363281 39.726562 Z M 126.363281 39.726562 " fill-opacity="1" fill-rule="nonzero"/></g></g></g><g fill="#174b21" fill-opacity="1"><g transform="translate(20.370007, 46.279126)"><g><path d="M 13.75 -12.65625 L 8.953125 -12.65625 L 8.953125 0 L 4.90625 0 L 4.90625 -12.65625 L 0.15625 -12.65625 L 0.15625 -15.9375 L 13.75 -15.9375 Z M 13.75 -12.65625 "/></g></g></g><g fill="#174b21" fill-opacity="1"><g transform="translate(39.332152, 46.279126)"><g><path d="M 14.046875 -12.734375 L 5.640625 -12.734375 L 5.640625 -9.578125 L 13.234375 -9.578125 L 13.234375 -6.390625 L 5.640625 -6.390625 L 5.640625 -3.1875 L 14.296875 -3.1875 L 14.296875 0 L 1.59375 0 L 1.59375 -15.921875 L 14.046875 -15.921875 Z M 14.046875 -12.734375 "/></g></g></g><g fill="#174b21" fill-opacity="1"><g transform="translate(59.726593, 46.279126)"><g><path d="M 11.1875 0 L 8.828125 -4.484375 L 5.640625 -4.484375 L 5.640625 0 L 1.59375 0 L 1.59375 -15.921875 L 8.703125 -15.921875 C 10.816406 -15.921875 12.445312 -15.4375 13.59375 -14.46875 C 14.75 -13.507812 15.328125 -12.140625 15.328125 -10.359375 C 15.328125 -7.910156 14.363281 -6.207031 12.4375 -5.25 L 15.78125 0 Z M 5.640625 -7.65625 L 8.703125 -7.65625 C 9.585938 -7.65625 10.269531 -7.875 10.75 -8.3125 C 11.238281 -8.757812 11.484375 -9.398438 11.484375 -10.234375 C 11.484375 -11.046875 11.238281 -11.664062 10.75 -12.09375 C 10.269531 -12.519531 9.585938 -12.734375 8.703125 -12.734375 L 5.640625 -12.734375 Z M 5.640625 -7.65625 "/></g></g></g><g fill="#174b21" fill-opacity="1"><g transform="translate(81.257768, 46.279126)"><g><path d="M 11.1875 0 L 8.828125 -4.484375 L 5.640625 -4.484375 L 5.640625 0 L 1.59375 0 L 1.59375 -15.921875 L 8.703125 -15.921875 C 10.816406 -15.921875 12.445312 -15.4375 13.59375 -14.46875 C 14.75 -13.507812 15.328125 -12.140625 15.328125 -10.359375 C 15.328125 -7.910156 14.363281 -6.207031 12.4375 -5.25 L 15.78125 0 Z M 5.640625 -7.65625 L 8.703125 -7.65625 C 9.585938 -7.65625 10.269531 -7.875 10.75 -8.3125 C 11.238281 -8.757812 11.484375 -9.398438 11.484375 -10.234375 C 11.484375 -11.046875 11.238281 -11.664062 10.75 -12.09375 C 10.269531 -12.519531 9.585938 -12.734375 8.703125 -12.734375 L 5.640625 -12.734375 Z M 5.640625 -7.65625 "/></g></g></g><g fill="#174b21" fill-opacity="1"><g transform="translate(130.296512, 47.21819)"><g><path d="M 5.625 -3.375 L 12.375 -3.375 L 12.375 0 L 1.59375 0 L 1.59375 -15.890625 L 5.625 -15.890625 Z M 5.625 -3.375 "/></g></g></g><g fill="#174b21" fill-opacity="1"><g transform="translate(148.07686, 47.21819)"><g><path d="M 14.03125 -12.71875 L 5.625 -12.71875 L 5.625 -9.5625 L 13.21875 -9.5625 L 13.21875 -6.375 L 5.625 -6.375 L 5.625 -3.171875 L 14.28125 -3.171875 L 14.28125 0 L 1.59375 0 L 1.59375 -15.890625 L 14.03125 -15.890625 Z M 14.03125 -12.71875 "/></g></g></g><g fill="#174b21" fill-opacity="1"><g transform="translate(168.445683, 47.21819)"><g><path d="M 12.140625 -2.921875 L 5.203125 -2.921875 L 4.046875 0 L -0.109375 0 L 6.75 -15.890625 L 10.890625 -15.890625 L 17.59375 0 L 13.28125 0 Z M 10.96875 -6 L 8.703125 -11.875 L 6.375 -6 Z M 10.96875 -6 "/></g></g></g><g fill="#174b21" fill-opacity="1"><g transform="translate(190.994279, 47.21819)"><g><path d="M 13.375 -12.71875 L 5.625 -12.71875 L 5.625 -9.03125 L 12.765625 -9.03125 L 12.765625 -5.859375 L 5.625 -5.859375 L 5.625 0 L 1.59375 0 L 1.59375 -15.890625 L 13.375 -15.890625 Z M 13.375 -12.71875 "/></g></g></g></svg>